{
  "accessors": [
    {
      "bufferView": 2,
      "componentType": 5126,
      "count": 307,
      "max": [
        4.125368118286133,
        4.012170314788818,
        5.3247222900390625
      ],
      "min": [
        -3.9942588806152344,
        -4.012170314788818,
        0.0
      ],
      "type": "VEC3"
    },
    {
      "bufferView": 2,
      "byteOffset": 3684,
      "componentType": 5126,
      "count": 307,
      "max": [
        1.0,
        1.0,
        3.918828042515088e-06
      ],
      "min": [
        -1.0,
        -1.0,
        -1.0
      ],
      "type": "VEC3"
    },
    {
      "bufferView": 1,
      "componentType": 5126,
      "count": 307,
      "max": [
        0.9972971677780151,
        0.9798048138618469
      ],
      "min": [
        0.0023039616644382477,
        0.001806486863642931
      ],
      "type": "VEC2"
    },
    {
      "bufferView": 0,
      "componentType": 5125,
      "count": 456,
      "type": "SCALAR"
    },
    {
      "bufferView": 2,
      "byteOffset": 7368,
      "componentType": 5126,
      "count": 68,
      "max": [
        4.166371822357178,
        4.303849697113037,
        5.838346004486084
      ],
      "min": [
        -4.166371822357178,
        -4.585115909576416,
        5.3247222900390625
      ],
      "type": "VEC3"
    },
    {
      "bufferView": 2,
      "byteOffset": 8184,
      "componentType": 5126,
      "count": 68,
      "max": [
        1.0,
        1.0,
        0.9971159100532532
      ],
      "min": [
        -1.0,
        -1.0,
        -1.0
      ],
      "type": "VEC3"
    },
    {
      "bufferView": 1,
      "byteOffset": 2456,
      "componentType": 5126,
      "count": 68,
      "max": [
        0.8105998635292053,
        0.9972435235977173
      ],
      "min": [
        0.003759041428565979,
        0.6763821244239807
      ],
      "type": "VEC2"
    },
    {
      "bufferView": 0,
      "byteOffset": 1824,
      "componentType": 5125,
      "count": 120,
      "type": "SCALAR"
    },
    {
      "bufferView": 2,
      "byteOffset": 9000,
      "componentType": 5126,
      "count": 72,
      "max": [
        -3.019425392150879,
        0.0,
        0.4974736273288727
      ],
      "min": [
        -4.552700519561768,
        -4.560368537902832,
        0.0
      ],
      "type": "VEC3"
    },
    {
      "bufferView": 2,
      "byteOffset": 9864,
      "componentType": 5126,
      "count": 72,
      "max": [
        1.0,
        1.0,
        1.0
      ],
      "min": [
        -1.0,
        -1.0,
        0.0
      ],
      "type": "VEC3"
    },
    {
      "bufferView": 1,
      "byteOffset": 3000,
      "componentType": 5126,
      "count": 72,
      "max": [
        0.9896726012229919,
        0.8771364092826843
      ],
      "min": [
        0.4348134994506836,
        0.6762977242469788
      ],
      "type": "VEC2"
    },
    {
      "bufferView": 0,
      "byteOffset": 2304,
      "componentType": 5125,
      "count": 96,
      "type": "SCALAR"
    },
    {
      "bufferView": 2,
      "byteOffset": 10728,
      "componentType": 5126,
      "count": 4,
      "max": [
        -1.763584852218628,
        -4.053558349609375,
        4.833195686340332
      ],
      "min": [
        -3.6057703495025635,
        -4.053558349609375,
        3.578281879425049
      ],
      "type": "VEC3"
    },
    {
      "bufferView": 2,
      "byteOffset": 10776,
      "componentType": 5126,
      "count": 4,
      "max": [
        0.0,
        -1.0,
        0.0
      ],
      "min": [
        0.0,
        -1.0,
        0.0
      ],
      "type": "VEC3"
    },
    {
      "bufferView": 1,
      "byteOffset": 3576,
      "componentType": 5126,
      "count": 4,
      "max": [
        0.4953477382659912,
        0.5596958994865417
      ],
      "min": [
        0.007837042212486267,
        0.19383546710014343
      ],
      "type": "VEC2"
    },
    {
      "bufferView": 0,
      "byteOffset": 2688,
      "componentType": 5125,
      "count": 6,
      "type": "SCALAR"
    },
    {
      "bufferView": 2,
      "byteOffset": 10824,
      "componentType": 5126,
      "count": 4,
      "max": [
        -4.035646915435791,
        -1.3660553693771362,
        4.833195686340332
      ],
      "min": [
        -4.035646915435791,
        -2.6461150646209717,
        3.578281879425049
      ],
      "type": "VEC3"
    },
    {
      "bufferView": 2,
      "byteOffset": 10872,
      "componentType": 5126,
      "count": 4,
      "max": [
        -1.0,
        0.0,
        0.0
      ],
      "min": [
        -1.0,
        0.0,
        0.0
      ],
      "type": "VEC3"
    },
    {
      "bufferView": 1,
      "byteOffset": 3608,
      "componentType": 5126,
      "count": 4,
      "max": [
        0.4953477382659912,
        0.5596958994865417
      ],
      "min": [
        0.007837042212486267,
        0.19383546710014343
      ],
      "type": "VEC2"
    },
    {
      "bufferView": 0,
      "byteOffset": 2712,
      "componentType": 5125,
      "count": 6,
      "type": "SCALAR"
    },
    {
      "bufferView": 2,
      "byteOffset": 10920,
      "componentType": 5126,
      "count": 4,
      "max": [
        -4.035646915435791,
        -0.8367705345153809,
        2.2305495738983154
      ],
      "min": [
        -4.035646915435791,
        -3.1753997802734375,
        0.9177945256233215
      ],
      "type": "VEC3"
    },
    {
      "bufferView": 2,
      "byteOffset": 10968,
      "componentType": 5126,
      "count": 4,
      "max": [
        -1.0,
        0.0,
        0.0
      ],
      "min": [
        -1.0,
        0.0,
        0.0
      ],
      "type": "VEC3"
    },
    {
      "bufferView": 1,
      "byteOffset": 3640,
      "componentType": 5126,
      "count": 4,
      "max": [
        0.4953477382659912,
        0.5596958994865417
      ],
      "min": [
        0.007837042212486267,
        0.19383546710014343
      ],
      "type": "VEC2"
    },
    {
      "bufferView": 0,
      "byteOffset": 2736,
      "componentType": 5125,
      "count": 6,
      "type": "SCALAR"
    },
    {
      "bufferView": 2,
      "byteOffset": 11016,
      "componentType": 5126,
      "count": 4,
      "max": [
        -4.035646915435791,
        3.1836633682250977,
        2.2305495738983154
      ],
      "min": [
        -4.035646915435791,
        0.845034122467041,
        0.9177945256233215
      ],
      "type": "VEC3"
    },
    {
      "bufferView": 2,
      "byteOffset": 11064,
      "componentType": 5126,
      "count": 4,
      "max": [
        -1.0,
        0.0,
        0.0
      ],
      "min": [
        -1.0,
        0.0,
        0.0
      ],
      "type": "VEC3"
    },
    {
      "bufferView": 1,
      "byteOffset": 3672,
      "componentType": 5126,
      "count": 4,
      "max": [
        0.4953477382659912,
        0.5596958994865417
      ],
      "min": [
        0.007837042212486267,
        0.19383546710014343
      ],
      "type": "VEC2"
    },
    {
      "bufferView": 0,
      "byteOffset": 2760,
      "componentType": 5125,
      "count": 6,
      "type": "SCALAR"
    },
    {
      "bufferView": 2,
      "byteOffset": 11112,
      "componentType": 5126,
      "count": 4,
      "max": [
        -0.33947646617889404,
        4.045534610748291,
        4.927301406860352
      ],
      "min": [
        -1.619536280632019,
        4.045534610748291,
        3.5338501930236816
      ],
      "type": "VEC3"
    },
    {
      "bufferView": 2,
      "byteOffset": 11160,
      "componentType": 5126,
      "count": 4,
      "max": [
        0.0,
        1.0,
        0.0
      ],
      "min": [
        0.0,
        1.0,
        0.0
      ],
      "type": "VEC3"
    },
    {
      "bufferView": 1,
      "byteOffset": 3704,
      "componentType": 5126,
      "count": 4,
      "max": [
        0.4953477382659912,
        0.5596958994865417
      ],
      "min": [
        0.007837042212486267,
        0.19383546710014343
      ],
      "type": "VEC2"
    },
    {
      "bufferView": 0,
      "byteOffset": 2784,
      "componentType": 5125,
      "count": 6,
      "type": "SCALAR"
    },
    {
      "bufferView": 2,
      "byteOffset": 11208,
      "componentType": 5126,
      "count": 4,
      "max": [
        4.137346267700195,
        2.654378652572632,
        4.833195686340332
      ],
      "min": [
        4.137346267700195,
        1.3743188381195068,
        3.578281879425049
      ],
      "type": "VEC3"
    },
    {
      "bufferView": 2,
      "byteOffset": 11256,
      "componentType": 5126,
      "count": 4,
      "max": [
        1.0,
        0.0,
        0.0
      ],
      "min": [
        1.0,
        0.0,
        0.0
      ],
      "type": "VEC3"
    },
    {
      "bufferView": 1,
      "byteOffset": 3736,
      "componentType": 5126,
      "count": 4,
      "max": [
        0.4953477382659912,
        0.5596958994865417
      ],
      "min": [
        0.007837042212486267,
        0.19383546710014343
      ],
      "type": "VEC2"
    },
    {
      "bufferView": 0,
      "byteOffset": 2808,
      "componentType": 5125,
      "count": 6,
      "type": "SCALAR"
    },
    {
      "bufferView": 2,
      "byteOffset": 11304,
      "componentType": 5126,
      "count": 4,
      "max": [
        3.045031785964966,
        -4.053558349609375,
        4.833195686340332
      ],
      "min": [
        0.9474194049835205,
        -4.053558349609375,
        3.578281879425049
      ],
      "type": "VEC3"
    },
    {
      "bufferView": 2,
      "byteOffset": 11352,
      "componentType": 5126,
      "count": 4,
      "max": [
        0.0,
        -1.0,
        0.0
      ],
      "min": [
        0.0,
        -1.0,
        0.0
      ],
      "type": "VEC3"
    },
    {
      "bufferView": 1,
      "byteOffset": 3768,
      "componentType": 5126,
      "count": 4,
      "max": [
        0.4953477382659912,
        0.5596958994865417
      ],
      "min": [
        0.007837042212486267,
        0.19383546710014343
      ],
      "type": "VEC2"
    },
    {
      "bufferView": 0,
      "byteOffset": 2832,
      "componentType": 5125,
      "count": 6,
      "type": "SCALAR"
    },
    {
      "bufferView": 2,
      "byteOffset": 11400,
      "componentType": 5126,
      "count": 4,
      "max": [
        -1.763584852218628,
        -4.053558349609375,
        2.1948022842407227
      ],
      "min": [
        -3.6057703495025635,
        -4.053558349609375,
        0.9398884773254395
      ],
      "type": "VEC3"
    },
    {
      "bufferView": 2,
      "byteOffset": 11448,
      "componentType": 5126,
      "count": 4,
      "max": [
        0.0,
        -1.0,
        0.0
      ],
      "min": [
        0.0,
        -1.0,
        0.0
      ],
      "type": "VEC3"
    },
    {
      "bufferView": 1,
      "byteOffset": 3800,
      "componentType": 5126,
      "count": 4,
      "max": [
        0.4953477382659912,
        0.5596958994865417
      ],
      "min": [
        0.007837042212486267,
        0.19383546710014343
      ],
      "type": "VEC2"
    },
    {
      "bufferView": 0,
      "byteOffset": 2856,
      "componentType": 5125,
      "count": 6,
      "type": "SCALAR"
    },
    {
      "bufferView": 2,
      "byteOffset": 11496,
      "componentType": 5126,
      "count": 20,
      "max": [
        -0.33975762128829956,
        -3.9807865619659424,
        2.7090485095977783
      ],
      "min": [
        -1.654900312423706,
        -4.861001968383789,
        2.487581253051758
      ],
      "type": "VEC3"
    },
    {
      "bufferView": 2,
      "byteOffset": 11736,
      "componentType": 5126,
      "count": 20,
      "max": [
        1.0,
        0.0,
        1.0
      ],
      "min": [
        -1.0,
        -1.0,
        -1.0
      ],
      "type": "VEC3"
    },
    {
      "bufferView": 1,
      "byteOffset": 3832,
      "componentType": 5126,
      "count": 20,
      "max": [
        0.597225546836853,
        0.995523989200592
      ],
      "min": [
        0.4342142939567566,
        0.8436546921730042
      ],
      "type": "VEC2"
    },
    {
      "bufferView": 0,
      "byteOffset": 2880,
      "componentType": 5125,
      "count": 30,
      "type": "SCALAR"
    },
    {
      "bufferView": 2,
      "byteOffset": 11976,
      "componentType": 5126,
      "count": 36,
      "max": [
        -0.4276224970817566,
        3.121440887451172,
        2.477588176727295
      ],
      "min": [
        -1.6645758152008057,
        0.3488236665725708,
        0.3127046823501587
      ],
      "type": "VEC3"
    },
    {
      "bufferView": 2,
      "byteOffset": 12408,
      "componentType": 5126,
      "count": 36,
      "max": [
        0.0,
        0.0,
        1.0
      ],
      "min": [
        0.0,
        -3.43961886528632e-07,
        1.0
      ],
      "type": "VEC3"
    },
    {
      "bufferView": 1,
      "byteOffset": 3992,
      "componentType": 5126,
      "count": 36,
      "max": [
        0.634612500667572,
        0.15237149596214294
      ],
      "min": [
        0.002718329429626465,
        0.004983097314834595
      ],
      "type": "VEC2"
    },
    {
      "bufferView": 1,
      "byteOffset": 4280,
      "componentType": 5126,
      "count": 36,
      "max": [
        0.0,
        0.0
      ],
      "min": [
        0.0,
        0.0
      ],
      "type": "VEC2"
    },
    {
      "bufferView": 0,
      "byteOffset": 3000,
      "componentType": 5125,
      "count": 48,
      "type": "SCALAR"
    },
    {
      "bufferView": 2,
      "byteOffset": 12840,
      "componentType": 5126,
      "count": 14,
      "max": [
        -0.3619922995567322,
        3.904778242111206,
        3.6853229999542236
      ],
      "min": [
        -0.3619922995567322,
        0.2554130554199219,
        -0.010185003280639648
      ],
      "type": "VEC3"
    },
    {
      "bufferView": 2,
      "byteOffset": 13008,
      "componentType": 5126,
      "count": 14,
      "max": [
        1.0,
        0.0,
        0.0
      ],
      "min": [
        1.0,
        -4.3559758466926723e-08,
        0.0
      ],
      "type": "VEC3"
    },
    {
      "bufferView": 1,
      "byteOffset": 4568,
      "componentType": 5126,
      "count": 14,
      "max": [
        0.49371033906936646,
        0.9940593838691711
      ],
      "min": [
        0.009560450911521912,
        0.6001787781715393
      ],
      "type": "VEC2"
    },
    {
      "bufferView": 1,
      "byteOffset": 4680,
      "componentType": 5126,
      "count": 14,
      "max": [
        0.625,
        0.25
      ],
      "min": [
        0.625,
        0.0
      ],
      "type": "VEC2"
    },
    {
      "bufferView": 0,
      "byteOffset": 3192,
      "componentType": 5125,
      "count": 18,
      "type": "SCALAR"
    },
    {
      "bufferView": 2,
      "byteOffset": 13176,
      "componentType": 5126,
      "count": 14,
      "max": [
        -1.632523775100708,
        3.904778242111206,
        3.6853229999542236
      ],
      "min": [
        -1.632523775100708,
        0.2554130554199219,
        -0.010185003280639648
      ],
      "type": "VEC3"
    },
    {
      "bufferView": 2,
      "byteOffset": 13344,
      "componentType": 5126,
      "count": 14,
      "max": [
        1.0,
        1.742390338677069e-07,
        0.0
      ],
      "min": [
        1.0,
        0.0,
        0.0
      ],
      "type": "VEC3"
    },
    {
      "bufferView": 1,
      "byteOffset": 4792,
      "componentType": 5126,
      "count": 14,
      "max": [
        0.49371033906936646,
        0.9940593838691711
      ],
      "min": [
        0.009560450911521912,
        0.6001787781715393
      ],
      "type": "VEC2"
    },
    {
      "bufferView": 1,
      "byteOffset": 4904,
      "componentType": 5126,
      "count": 14,
      "max": [
        0.625,
        0.25
      ],
      "min": [
        0.625,
        0.0
      ],
      "type": "VEC2"
    },
    {
      "bufferView": 0,
      "byteOffset": 3264,
      "componentType": 5125,
      "count": 18,
      "type": "SCALAR"
    }
  ],
  "asset": {
    "extras": {
      "author": "Wardster (https://sketchfab.com/WardsterSAW)",
      "license": "CC-BY-4.0 (http://creativecommons.org/licenses/by/4.0/)",
      "source": "https://sketchfab.com/3d-models/psxprop-ps1psx-house-508a0d596b5f4836ab057475b77fa47a",
      "title": "PSXprop - Ps1/psx House"
    },
    "generator": "Sketchfab-16.59.0",
    "version": "2.0"
  },
  "bufferViews": [
    {
      "buffer": 0,
      "byteLength": 3336,
      "name": "floatBufferViews",
      "target": 34963
    },
    {
      "buffer": 0,
      "byteLength": 5016,
      "byteOffset": 3336,
      "byteStride": 8,
      "name": "floatBufferViews",
      "target": 34962
    },
    {
      "buffer": 0,
      "byteLength": 13512,
      "byteOffset": 8352,
      "byteStride": 12,
      "name": "floatBufferViews",
      "target": 34962
    }
  ],
  "buffers": [
    {
      "byteLength": 21864,
      "uri": "scene.bin"
    }
  ],
  "extensionsUsed": [
    "KHR_materials_specular"
  ],
  "images": [
    {
      "uri": "textures/House01_baseColor.png"
    },
    {
      "uri": "textures/House01_emissive.png"
    },
    {
      "uri": "textures/lowPHouse01_baseColor.png"
    }
  ],
  "materials": [
    {
      "doubleSided": true,
      "emissiveFactor": [
        0.0457144250344382,
        0.0457144250344382,
        0.0457144250344382
      ],
      "emissiveTexture": {
        "index": 1
      },
      "extensions": {
        "KHR_materials_specular": {
          "specularColorFactor": [
            1.0,
            1.0,
            1.0
          ],
          "specularFactor": 0.0
        }
      },
      "name": "House01",
      "pbrMetallicRoughness": {
        "baseColorTexture": {
          "index": 0
        },
        "metallicFactor": 0.0,
        "roughnessFactor": 0.0
      }
    },
    {
      "alphaMode": "BLEND",
      "doubleSided": true,
      "extensions": {
        "KHR_materials_specular": {
          "specularColorFactor": [
            1.0,
            1.0,
            1.0
          ],
          "specularFactor": 0.0
        }
      },
      "name": "lowPHouse01",
      "pbrMetallicRoughness": {
        "baseColorTexture": {
          "index": 2
        },
        "metallicFactor": 0.0,
        "roughnessFactor": 0.0
      }
    }
  ],
  "meshes": [
    {
      "name": "lowPHouse01_House01_0",
      "primitives": [
        {
          "attributes": {
            "NORMAL": 1,
            "POSITION": 0,
            "TEXCOORD_0": 2
          },
          "indices": 3,
          "material": 0,
          "mode": 4
        }
      ]
    },
    {
      "name": "houseRoof_House01_0",
      "primitives": [
        {
          "attributes": {
            "NORMAL": 5,
            "POSITION": 4,
            "TEXCOORD_0": 6
          },
          "indices": 7,
          "material": 0,
          "mode": 4
        }
      ]
    },
    {
      "name": "Cube.002_House01_0",
      "primitives": [
        {
          "attributes": {
            "NORMAL": 9,
            "POSITION": 8,
            "TEXCOORD_0": 10
          },
          "indices": 11,
          "material": 0,
          "mode": 4
        }
      ]
    },
    {
      "name": "grillWindows_lowPHouse01_0",
      "primitives": [
        {
          "attributes": {
            "NORMAL": 13,
            "POSITION": 12,
            "TEXCOORD_0": 14
          },
          "indices": 15,
          "material": 1,
          "mode": 4
        }
      ]
    },
    {
      "name": "grillWindows.001_lowPHouse01_0",
      "primitives": [
        {
          "attributes": {
            "NORMAL": 17,
            "POSITION": 16,
            "TEXCOORD_0": 18
          },
          "indices": 19,
          "material": 1,
          "mode": 4
        }
      ]
    },
    {
      "name": "grillWindows.002_lowPHouse01_0",
      "primitives": [
        {
          "attributes": {
            "NORMAL": 21,
            "POSITION": 20,
            "TEXCOORD_0": 22
          },
          "indices": 23,
          "material": 1,
          "mode": 4
        }
      ]
    },
    {
      "name": "grillWindows.003_lowPHouse01_0",
      "primitives": [
        {
          "attributes": {
            "NORMAL": 25,
            "POSITION": 24,
            "TEXCOORD_0": 26
          },
          "indices": 27,
          "material": 1,
          "mode": 4
        }
      ]
    },
    {
      "name": "grillWindows.004_lowPHouse01_0",
      "primitives": [
        {
          "attributes": {
            "NORMAL": 29,
            "POSITION": 28,
            "TEXCOORD_0": 30
          },
          "indices": 31,
          "material": 1,
          "mode": 4
        }
      ]
    },
    {
      "name": "grillWindows.005_lowPHouse01_0",
      "primitives": [
        {
          "attributes": {
            "NORMAL": 33,
            "POSITION": 32,
            "TEXCOORD_0": 34
          },
          "indices": 35,
          "material": 1,
          "mode": 4
        }
      ]
    },
    {
      "name": "grillWindows.006_lowPHouse01_0",
      "primitives": [
        {
          "attributes": {
            "NORMAL": 37,
            "POSITION": 36,
            "TEXCOORD_0": 38
          },
          "indices": 39,
          "material": 1,
          "mode": 4
        }
      ]
    },
    {
      "name": "grillWindows.007_lowPHouse01_0",
      "primitives": [
        {
          "attributes": {
            "NORMAL": 41,
            "POSITION": 40,
            "TEXCOORD_0": 42
          },
          "indices": 43,
          "material": 1,
          "mode": 4
        }
      ]
    },
    {
      "name": "lowPHouse01.001_House01_0",
      "primitives": [
        {
          "attributes": {
            "NORMAL": 45,
            "POSITION": 44,
            "TEXCOORD_0": 46
          },
          "indices": 47,
          "material": 0,
          "mode": 4
        }
      ]
    },
    {
      "name": "houseStairs_lowPHouse01_0",
      "primitives": [
        {
          "attributes": {
            "NORMAL": 49,
            "POSITION": 48,
            "TEXCOORD_0": 50,
            "TEXCOORD_1": 51
          },
          "indices": 52,
          "material": 1,
          "mode": 4
        }
      ]
    },
    {
      "name": "houseStairs.001_lowPHouse01_0",
      "primitives": [
        {
          "attributes": {
            "NORMAL": 54,
            "POSITION": 53,
            "TEXCOORD_0": 55,
            "TEXCOORD_1": 56
          },
          "indices": 57,
          "material": 1,
          "mode": 4
        }
      ]
    },
    {
      "name": "houseStairs.002_lowPHouse01_0",
      "primitives": [
        {
          "attributes": {
            "NORMAL": 59,
            "POSITION": 58,
            "TEXCOORD_0": 60,
            "TEXCOORD_1": 61
          },
          "indices": 62,
          "material": 1,
          "mode": 4
        }
      ]
    }
  ],
  "nodes": [
    {
      "children": [
        1
      ],
      "matrix": [
        1.0,
        0.0,
        0.0,
        0.0,
        0.0,
        2.220446049250313e-16,
        -1.0,
        0.0,
        0.0,
        1.0,
        2.220446049250313e-16,
        0.0,
        0.0,
        0.0,
        0.0,
        1.0
      ],
      "name": "Sketchfab_model"
    },
    {
      "children": [
        2
      ],
      "matrix": [
        0.009999999776482582,
        0.0,
        0.0,
        0.0,
        0.0,
        0.0,
        0.009999999776482582,
        0.0,
        0.0,
        -0.009999999776482582,
        0.0,
        0.0,
        0.0,
        0.0,
        0.0,
        1.0
      ],
      "name": "8a2ea31b010d47309e98841400c9e61d.fbx"
    },
    {
      "children": [
        3,
        9,
        25
      ],
      "name": "RootNode"
    },
    {
      "children": [
        4,
        5,
        7
      ],
      "matrix": [
        -99.9999999999996,
        -8.742277980456488e-06,
        0.0,
        0.0,
        -1.4242978711041864e-12,
        1.6292067994694293e-05,
        99.99999999999865,
        0.0,
        -8.74227798045637e-06,
        99.99999999999828,
        -1.6292067983592062e-05,
        0.0,
        0.0,
        0.0,
        0.0,
        1.0
      ],
      "name": "lowPHouse01"
    },
    {
      "mesh": 0,
      "name": "lowPHouse01_House01_0"
    },
    {
      "children": [
        6
      ],
      "matrix": [
        1.0,
        -3.0923570057466035e-30,
        -1.3234889800848452e-23,
        0.0,
        3.092357005746604e-30,
        1.0,
        2.646977960169689e-23,
        0.0,
        1.3234889800848452e-23,
        -2.646977960169689e-23,
        1.0,
        0.0,
        0.0,
        0.0,
        0.0,
        1.0
      ],
      "name": "houseRoof"
    },
    {
      "mesh": 1,
      "name": "houseRoof_House01_0"
    },
    {
      "children": [
        8
      ],
      "matrix": [
        1.0,
        -3.0923570057466035e-30,
        -1.3234889800848452e-23,
        0.0,
        3.092357005746604e-30,
        1.0,
        2.646977960169689e-23,
        0.0,
        1.3234889800848452e-23,
        -2.646977960169689e-23,
        1.0,
        0.0,
        0.0,
        0.0,
        0.0,
        1.0
      ],
      "name": "Cube.002"
    },
    {
      "mesh": 2,
      "name": "Cube.002_House01_0"
    },
    {
      "children": [
        10,
        11,
        13,
        15,
        17,
        19,
        21,
        23
      ],
      "matrix": [
        -99.9999999999996,
        -8.742277980456488e-06,
        0.0,
        0.0,
        -1.4242978711041864e-12,
        1.6292067994694293e-05,
        99.99999999999865,
        0.0,
        -8.74227798045637e-06,
        99.99999999999828,
        -1.6292067983592062e-05,
        0.0,
        0.0,
        0.0,
        0.0,
        1.0
      ],
      "name": "grillWindows"
    },
    {
      "mesh": 3,
      "name": "grillWindows_lowPHouse01_0"
    },
    {
      "children": [
        12
      ],
      "matrix": [
        1.0,
        -3.0923570057466035e-30,
        -1.3234889800848452e-23,
        0.0,
        3.092357005746604e-30,
        1.0,
        2.646977960169689e-23,
        0.0,
        1.3234889800848452e-23,
        -2.646977960169689e-23,
        1.0,
        0.0,
        0.0,
        0.0,
        0.0,
        1.0
      ],
      "name": "grillWindows.001"
    },
    {
      "mesh": 4,
      "name": "grillWindows.001_lowPHouse01_0"
    },
    {
      "children": [
        14
      ],
      "matrix": [
        1.0,
        -3.0923570057466035e-30,
        -1.3234889800848452e-23,
        0.0,
        3.092357005746604e-30,
        1.0,
        2.646977960169689e-23,
        0.0,
        1.3234889800848452e-23,
        -2.646977960169689e-23,
        1.0,
        0.0,
        0.0,
        0.0,
        0.0,
        1.0
      ],
      "name": "grillWindows.002"
    },
    {
      "mesh": 5,
      "name": "grillWindows.002_lowPHouse01_0"
    },
    {
      "children": [
        16
      ],
      "matrix": [
        1.0,
        -3.0923570057466035e-30,
        -1.3234889800848452e-23,
        0.0,
        3.092357005746604e-30,
        1.0,
        2.646977960169689e-23,
        0.0,
        1.3234889800848452e-23,
        -2.646977960169689e-23,
        1.0,
        0.0,
        0.0,
        0.0,
        0.0,
        1.0
      ],
      "name": "grillWindows.003"
    },
    {
      "mesh": 6,
      "name": "grillWindows.003_lowPHouse01_0"
    },
    {
      "children": [
        18
      ],
      "matrix": [
        1.0,
        -3.0923570057466035e-30,
        -1.3234889800848452e-23,
        0.0,
        3.092357005746604e-30,
        1.0,
        2.646977960169689e-23,
        0.0,
        1.3234889800848452e-23,
        -2.646977960169689e-23,
        1.0,
        0.0,
        0.0,
        0.0,
        0.0,
        1.0
      ],
      "name": "grillWindows.004"
    },
    {
      "mesh": 7,
      "name": "grillWindows.004_lowPHouse01_0"
    },
    {
      "children": [
        20
      ],
      "matrix": [
        1.0,
        -3.0923570057466035e-30,
        -1.3234889800848452e-23,
        0.0,
        3.092357005746604e-30,
        1.0,
        2.646977960169689e-23,
        0.0,
        1.3234889800848452e-23,
        -2.646977960169689e-23,
        1.0,
        0.0,
        0.0,
        0.0,
        0.0,
        1.0
      ],
      "name": "grillWindows.005"
    },
    {
      "mesh": 8,
      "name": "grillWindows.005_lowPHouse01_0"
    },
    {
      "children": [
        22
      ],
      "matrix": [
        1.0,
        -3.0923570057466035e-30,
        -1.3234889800848452e-23,
        0.0,
        3.092357005746604e-30,
        1.0,
        2.646977960169689e-23,
        0.0,
        1.3234889800848452e-23,
        -2.646977960169689e-23,
        1.0,
        0.0,
        0.0,
        0.0,
        0.0,
        1.0
      ],
      "name": "grillWindows.006"
    },
    {
      "mesh": 9,
      "name": "grillWindows.006_lowPHouse01_0"
    },
    {
      "children": [
        24
      ],
      "matrix": [
        1.0,
        -3.0923570057466035e-30,
        -1.3234889800848452e-23,
        0.0,
        3.092357005746604e-30,
        1.0,
        2.646977960169689e-23,
        0.0,
        1.3234889800848452e-23,
        -2.646977960169689e-23,
        1.0,
        0.0,
        0.0,
        0.0,
        0.0,
        1.0
      ],
      "name": "grillWindows.007"
    },
    {
      "mesh": 10,
      "name": "grillWindows.007_lowPHouse01_0"
    },
    {
      "children": [
        26,
        27
      ],
      "matrix": [
        -99.9999999999996,
        -8.742277980456488e-06,
        0.0,
        0.0,
        -1.4242978711041864e-12,
        1.6292067994694293e-05,
        99.99999999999865,
        0.0,
        -8.74227798045637e-06,
        99.99999999999828,
        -1.6292067983592062e-05,
        0.0,
        0.0,
        0.0,
        0.0,
        1.0
      ],
      "name": "lowPHouse01.001"
    },
    {
      "mesh": 11,
      "name": "lowPHouse01.001_House01_0"
    },
    {
      "children": [
        28,
        29,
        31
      ],
      "matrix": [
        1.0,
        -3.0923570057466035e-30,
        -1.3234889800848452e-23,
        0.0,
        3.092357005746604e-30,
        1.0,
        2.646977960169689e-23,
        0.0,
        1.3234889800848452e-23,
        -2.646977960169689e-23,
        1.0,
        0.0,
        2.0675439121616995e-25,
        -7.885564804077148,
        0.012001335620880127,
        1.0
      ],
      "name": "houseStairs"
    },
    {
      "mesh": 12,
      "name": "houseStairs_lowPHouse01_0"
    },
    {
      "children": [
        30
      ],
      "matrix": [
        1.0,
        -2.2256840281587976e-30,
        -1.32348898008486e-23,
        0.0,
        2.2256840281587983e-30,
        1.0,
        2.646977960169689e-23,
        0.0,
        1.32348898008486e-23,
        -2.646977960169689e-23,
        1.0,
        0.0,
        0.0,
        0.0,
        0.0,
        1.0
      ],
      "name": "houseStairs.001"
    },
    {
      "mesh": 13,
      "name": "houseStairs.001_lowPHouse01_0"
    },
    {
      "children": [
        32
      ],
      "matrix": [
        1.0,
        -2.2256840281587976e-30,
        -1.32348898008486e-23,
        0.0,
        2.2256840281587983e-30,
        1.0,
        2.646977960169689e-23,
        0.0,
        1.32348898008486e-23,
        -2.646977960169689e-23,
        1.0,
        0.0,
        0.0,
        0.0,
        0.0,
        1.0
      ],
      "name": "houseStairs.002"
    },
    {
      "mesh": 14,
      "name": "houseStairs.002_lowPHouse01_0"
    }
  ],
  "samplers": [
    {
      "magFilter": 9729,
      "minFilter": 9987,
      "wrapS": 10497,
      "wrapT": 10497
    }
  ],
  "scene": 0,
  "scenes": [
    {
      "name": "Sketchfab_Scene",
      "nodes": [
        0
      ]
    }
  ],
  "textures": [
    {
      "sampler": 0,
      "source": 0
    },
    {
      "sampler": 0,
      "source": 1
    },
    {
      "sampler": 0,
      "source": 2
    }
  ]
}
