{
  "accessors": [
    {
      "bufferView": 2,
      "componentType": 5126,
      "count": 62,
      "max": [
        2.8000001907348633,
        2.5,
        8.5
      ],
      "min": [
        -2.5,
        -2.5,
        0.0
      ],
      "type": "VEC3"
    },
    {
      "bufferView": 2,
      "byteOffset": 744,
      "componentType": 5126,
      "count": 62,
      "max": [
        0.0,
        1.0,
        0.0
      ],
      "min": [
        -1.0,
        -1.0,
        0.0
      ],
      "type": "VEC3"
    },
    {
      "bufferView": 1,
      "componentType": 5126,
      "count": 62,
      "max": [
        1.217570185661316,
        2.2550852298736572
      ],
      "min": [
        -0.21757008135318756,
        -1.2550852298736572
      ],
      "type": "VEC2"
    },
    {
      "bufferView": 0,
      "componentType": 5125,
      "count": 162,
      "type": "SCALAR"
    },
    {
      "bufferView": 2,
      "byteOffset": 1488,
      "componentType": 5126,
      "count": 48,
      "max": [
        2.5,
        2.4988999366760254,
        1.998900055885315
      ],
      "min": [
        2.450000047683716,
        -2.4988999366760254,
        0.0010999998776242137
      ],
      "type": "VEC3"
    },
    {
      "bufferView": 2,
      "byteOffset": 2064,
      "componentType": 5126,
      "count": 48,
      "max": [
        1.0,
        1.0,
        9.313249726972117e-09
      ],
      "min": [
        0.0,
        -1.0,
        -1.0
      ],
      "type": "VEC3"
    },
    {
      "bufferView": 1,
      "byteOffset": 496,
      "componentType": 5126,
      "count": 48,
      "max": [
        1.760673999786377,
        1.4410536289215088
      ],
      "min": [
        -0.7606738805770874,
        -0.5353150963783264
      ],
      "type": "VEC2"
    },
    {
      "bufferView": 0,
      "byteOffset": 648,
      "componentType": 5125,
      "count": 108,
      "type": "SCALAR"
    },
    {
      "bufferView": 2,
      "byteOffset": 2640,
      "componentType": 5126,
      "count": 296,
      "max": [
        2.5,
        2.5,
        8.0
      ],
      "min": [
        2.450000047683716,
        -2.5,
        2.0
      ],
      "type": "VEC3"
    },
    {
      "bufferView": 2,
      "byteOffset": 6192,
      "componentType": 5126,
      "count": 296,
      "max": [
        1.0,
        1.0,
        1.0
      ],
      "min": [
        -1.0,
        -1.0,
        -1.0
      ],
      "type": "VEC3"
    },
    {
      "bufferView": 1,
      "byteOffset": 880,
      "componentType": 5126,
      "count": 296,
      "max": [
        1.5337936878204346,
        1.888839840888977
      ],
      "min": [
        -0.5337937474250793,
        -0.888839840888977
      ],
      "type": "VEC2"
    },
    {
      "bufferView": 0,
      "byteOffset": 1080,
      "componentType": 5125,
      "count": 906,
      "type": "SCALAR"
    },
    {
      "bufferView": 2,
      "byteOffset": 9744,
      "componentType": 5126,
      "count": 44,
      "max": [
        2.8000001907348633,
        2.5,
        8.5
      ],
      "min": [
        -2.5,
        -2.5,
        0.0
      ],
      "type": "VEC3"
    },
    {
      "bufferView": 2,
      "byteOffset": 10272,
      "componentType": 5126,
      "count": 44,
      "max": [
        1.0,
        8.131912909448147e-05,
        1.0
      ],
      "min": [
        0.0,
        -8.131912909448147e-05,
        -1.0
      ],
      "type": "VEC3"
    },
    {
      "bufferView": 1,
      "byteOffset": 3248,
      "componentType": 5126,
      "count": 44,
      "max": [
        8.166666984558105,
        8.5
      ],
      "min": [
        -4.5,
        -7.5
      ],
      "type": "VEC2"
    },
    {
      "bufferView": 0,
      "byteOffset": 4704,
      "componentType": 5125,
      "count": 96,
      "type": "SCALAR"
    },
    {
      "bufferView": 2,
      "byteOffset": 10800,
      "componentType": 5126,
      "count": 24,
      "max": [
        2.8000001907348633,
        2.5,
        8.5
      ],
      "min": [
        2.5,
        -2.5,
        7.868755340576172
      ],
      "type": "VEC3"
    },
    {
      "bufferView": 2,
      "byteOffset": 11088,
      "componentType": 5126,
      "count": 24,
      "max": [
        1.0,
        0.0,
        0.0
      ],
      "min": [
        6.6212696765433066e-06,
        0.0,
        -1.0
      ],
      "type": "VEC3"
    },
    {
      "bufferView": 1,
      "byteOffset": 3600,
      "componentType": 5126,
      "count": 24,
      "max": [
        2.0298709869384766,
        0.9892582893371582
      ],
      "min": [
        -1.0298707485198975,
        0.010741740465164185
      ],
      "type": "VEC2"
    },
    {
      "bufferView": 0,
      "byteOffset": 5088,
      "componentType": 5125,
      "count": 48,
      "type": "SCALAR"
    },
    {
      "bufferView": 2,
      "byteOffset": 11376,
      "componentType": 5126,
      "count": 12,
      "max": [
        2.450000047683716,
        1.9616646766662598,
        3.4200003147125244
      ],
      "min": [
        2.450000047683716,
        -1.9616647958755493,
        2.580000162124634
      ],
      "type": "VEC3"
    },
    {
      "bufferView": 2,
      "byteOffset": 11520,
      "componentType": 5126,
      "count": 12,
      "max": [
        1.0,
        0.0,
        0.0
      ],
      "min": [
        1.0,
        0.0,
        0.0
      ],
      "type": "VEC3"
    },
    {
      "bufferView": 1,
      "byteOffset": 3792,
      "componentType": 5126,
      "count": 12,
      "max": [
        0.996391773223877,
        1.0013060569763184
      ],
      "min": [
        0.0036081671714782715,
        -0.0013061503414064646
      ],
      "type": "VEC2"
    },
    {
      "bufferView": 0,
      "byteOffset": 5280,
      "componentType": 5125,
      "count": 18,
      "type": "SCALAR"
    },
    {
      "bufferView": 2,
      "byteOffset": 11664,
      "componentType": 5126,
      "count": 24,
      "max": [
        2.450000047683716,
        1.9616646766662598,
        7.419999122619629
      ],
      "min": [
        2.450000047683716,
        -1.9616647958755493,
        4.579999923706055
      ],
      "type": "VEC3"
    },
    {
      "bufferView": 2,
      "byteOffset": 11952,
      "componentType": 5126,
      "count": 24,
      "max": [
        1.0,
        0.0,
        0.0
      ],
      "min": [
        1.0,
        0.0,
        0.0
      ],
      "type": "VEC3"
    },
    {
      "bufferView": 1,
      "byteOffset": 3888,
      "componentType": 5126,
      "count": 24,
      "max": [
        0.996900200843811,
        0.9982982873916626
      ],
      "min": [
        0.003099799156188965,
        0.0036270995624363422
      ],
      "type": "VEC2"
    },
    {
      "bufferView": 0,
      "byteOffset": 5352,
      "componentType": 5125,
      "count": 36,
      "type": "SCALAR"
    },
    {
      "bufferView": 2,
      "byteOffset": 12240,
      "componentType": 5126,
      "count": 4,
      "max": [
        2.450000047683716,
        -1.0999999046325684,
        1.5011000633239746
      ],
      "min": [
        2.450000047683716,
        -1.8999998569488525,
        0.0010999998776242137
      ],
      "type": "VEC3"
    },
    {
      "bufferView": 2,
      "byteOffset": 12288,
      "componentType": 5126,
      "count": 4,
      "max": [
        1.0,
        0.0,
        0.0
      ],
      "min": [
        1.0,
        0.0,
        0.0
      ],
      "type": "VEC3"
    },
    {
      "bufferView": 1,
      "byteOffset": 4080,
      "componentType": 5126,
      "count": 4,
      "max": [
        0.9945064783096313,
        0.9971475601196289
      ],
      "min": [
        0.005493521690368652,
        0.0028523816727101803
      ],
      "type": "VEC2"
    },
    {
      "bufferView": 0,
      "byteOffset": 5496,
      "componentType": 5125,
      "count": 6,
      "type": "SCALAR"
    },
    {
      "bufferView": 2,
      "byteOffset": 12336,
      "componentType": 5126,
      "count": 4,
      "max": [
        2.450000047683716,
        1.428899884223938,
        1.5011000633239746
      ],
      "min": [
        2.450000047683716,
        0.07000009715557098,
        0.0010999998776242137
      ],
      "type": "VEC3"
    },
    {
      "bufferView": 2,
      "byteOffset": 12384,
      "componentType": 5126,
      "count": 4,
      "max": [
        1.0,
        0.0,
        0.0
      ],
      "min": [
        1.0,
        0.0,
        0.0
      ],
      "type": "VEC3"
    },
    {
      "bufferView": 1,
      "byteOffset": 4112,
      "componentType": 5126,
      "count": 4,
      "max": [
        2.023477077484131,
        1.0015851259231567
      ],
      "min": [
        0.0036645233631134033,
        0.0036867244634777308
      ],
      "type": "VEC2"
    },
    {
      "bufferView": 0,
      "byteOffset": 5520,
      "componentType": 5125,
      "count": 6,
      "type": "SCALAR"
    },
    {
      "bufferView": 2,
      "byteOffset": 12432,
      "componentType": 5126,
      "count": 20,
      "max": [
        2.538377046585083,
        2.20521879196167,
        2.0773191452026367
      ],
      "min": [
        2.1319339275360107,
        -0.6431230306625366,
        1.6958332061767578
      ],
      "type": "VEC3"
    },
    {
      "bufferView": 2,
      "byteOffset": 12672,
      "componentType": 5126,
      "count": 20,
      "max": [
        1.0,
        0.9364664554595947,
        0.9944251179695129
      ],
      "min": [
        -0.3507573902606964,
        -0.9364664554595947,
        -0.9944252371788025
      ],
      "type": "VEC3"
    },
    {
      "bufferView": 1,
      "byteOffset": 4144,
      "componentType": 5126,
      "count": 20,
      "max": [
        1.005118727684021,
        1.063112497329712
      ],
      "min": [
        -0.005118526518344879,
        -0.09151458740234375
      ],
      "type": "VEC2"
    },
    {
      "bufferView": 0,
      "byteOffset": 5544,
      "componentType": 5125,
      "count": 30,
      "type": "SCALAR"
    },
    {
      "bufferView": 2,
      "byteOffset": 12912,
      "componentType": 5126,
      "count": 240,
      "max": [
        0.6589792370796204,
        -2.082536220550537,
        6.903450012207031
      ],
      "min": [
        -1.0900413990020752,
        -2.761138677597046,
        -5.215406329028838e-09
      ],
      "type": "VEC3"
    },
    {
      "bufferView": 2,
      "byteOffset": 15792,
      "componentType": 5126,
      "count": 240,
      "max": [
        0.7848442792892456,
        0.6196973919868469,
        0.7086034417152405
      ],
      "min": [
        -0.7848436832427979,
        -0.6196953058242798,
        -0.708646833896637
      ],
      "type": "VEC3"
    },
    {
      "bufferView": 1,
      "byteOffset": 4304,
      "componentType": 5126,
      "count": 240,
      "max": [
        6.164775848388672,
        1.9156957864761353
      ],
      "min": [
        -5.164775848388672,
        -0.9156957864761353
      ],
      "type": "VEC2"
    },
    {
      "bufferView": 0,
      "byteOffset": 5664,
      "componentType": 5125,
      "count": 360,
      "type": "SCALAR"
    },
    {
      "bufferView": 2,
      "byteOffset": 18672,
      "componentType": 5126,
      "count": 96,
      "max": [
        2.6058387756347656,
        1.3305292129516602,
        6.467854976654053
      ],
      "min": [
        2.4595770835876465,
        -1.9565742015838623,
        2.8896214962005615
      ],
      "type": "VEC3"
    },
    {
      "bufferView": 2,
      "byteOffset": 19824,
      "componentType": 5126,
      "count": 96,
      "max": [
        1.0,
        1.0,
        1.0
      ],
      "min": [
        -1.0,
        -1.0,
        -1.0
      ],
      "type": "VEC3"
    },
    {
      "bufferView": 1,
      "byteOffset": 6224,
      "componentType": 5126,
      "count": 96,
      "max": [
        1.0137397050857544,
        1.0346784591674805
      ],
      "min": [
        -0.0593005008995533,
        -0.034678488969802856
      ],
      "type": "VEC2"
    },
    {
      "bufferView": 0,
      "byteOffset": 7104,
      "componentType": 5125,
      "count": 144,
      "type": "SCALAR"
    }
  ],
  "asset": {
    "extras": {
      "author": "IIShazlyII (https://sketchfab.com/roboboy707070)",
      "license": "CC-BY-4.0 (http://creativecommons.org/licenses/by/4.0/)",
      "source": "https://sketchfab.com/3d-models/psx-apartment-80c8e1b5944e47d7b248535c70280243",
      "title": "PSX Apartment"
    },
    "generator": "Sketchfab-16.12.0",
    "version": "2.0"
  },
  "bufferViews": [
    {
      "buffer": 0,
      "byteLength": 7680,
      "name": "floatBufferViews",
      "target": 34963
    },
    {
      "buffer": 0,
      "byteLength": 6992,
      "byteOffset": 7680,
      "byteStride": 8,
      "name": "floatBufferViews",
      "target": 34962
    },
    {
      "buffer": 0,
      "byteLength": 20976,
      "byteOffset": 14672,
      "byteStride": 12,
      "name": "floatBufferViews",
      "target": 34962
    }
  ],
  "buffers": [
    {
      "byteLength": 35648,
      "uri": "scene.bin"
    }
  ],
  "images": [
    {
      "uri": "textures/Concreate_baseColor.png"
    },
    {
      "uri": "textures/Bricks2_baseColor.png"
    },
    {
      "uri": "textures/Bricks_baseColor.png"
    },
    {
      "uri": "textures/Roof_baseColor.png"
    },
    {
      "uri": "textures/Trim_baseColor.png"
    },
    {
      "uri": "textures/Windows2_baseColor.png"
    },
    {
      "uri": "textures/Windows_baseColor.png"
    },
    {
      "uri": "textures/Door_baseColor.png"
    },
    {
      "uri": "textures/Shop_baseColor.png"
    },
    {
      "uri": "textures/Sign_baseColor.png"
    },
    {
      "uri": "textures/Piep_baseColor.png"
    },
    {
      "uri": "textures/Air_Conditioner_baseColor.png"
    }
  ],
  "materials": [
    {
      "doubleSided": true,
      "name": "Concreate",
      "pbrMetallicRoughness": {
        "baseColorTexture": {
          "index": 0
        },
        "metallicFactor": 0.0,
        "roughnessFactor": 0.8211145618000169
      }
    },
    {
      "doubleSided": true,
      "name": "Bricks2",
      "pbrMetallicRoughness": {
        "baseColorTexture": {
          "index": 1
        },
        "metallicFactor": 0.0,
        "roughnessFactor": 0.8211145618000169
      }
    },
    {
      "doubleSided": true,
      "name": "Bricks",
      "pbrMetallicRoughness": {
        "baseColorTexture": {
          "index": 2
        },
        "metallicFactor": 0.0,
        "roughnessFactor": 0.8211145618000169
      }
    },
    {
      "doubleSided": true,
      "name": "Roof",
      "pbrMetallicRoughness": {
        "baseColorTexture": {
          "index": 3
        },
        "metallicFactor": 0.0,
        "roughnessFactor": 0.8211145618000169
      }
    },
    {
      "doubleSided": true,
      "name": "Trim",
      "pbrMetallicRoughness": {
        "baseColorTexture": {
          "index": 4
        },
        "metallicFactor": 0.0,
        "roughnessFactor": 0.8211145618000169
      }
    },
    {
      "doubleSided": true,
      "name": "Windows2",
      "pbrMetallicRoughness": {
        "baseColorTexture": {
          "index": 5
        },
        "metallicFactor": 0.0,
        "roughnessFactor": 0.8211145618000169
      }
    },
    {
      "doubleSided": true,
      "name": "Windows",
      "pbrMetallicRoughness": {
        "baseColorTexture": {
          "index": 6
        },
        "metallicFactor": 0.0,
        "roughnessFactor": 0.8211145618000169
      }
    },
    {
      "doubleSided": true,
      "name": "Door",
      "pbrMetallicRoughness": {
        "baseColorTexture": {
          "index": 7
        },
        "metallicFactor": 0.0,
        "roughnessFactor": 0.8211145618000169
      }
    },
    {
      "doubleSided": true,
      "name": "Shop",
      "pbrMetallicRoughness": {
        "baseColorTexture": {
          "index": 8
        },
        "metallicFactor": 0.0,
        "roughnessFactor": 0.8211145618000169
      }
    },
    {
      "doubleSided": true,
      "name": "Sign",
      "pbrMetallicRoughness": {
        "baseColorTexture": {
          "index": 9
        },
        "metallicFactor": 0.0,
        "roughnessFactor": 0.8211145618000169
      }
    },
    {
      "doubleSided": true,
      "name": "Piep",
      "pbrMetallicRoughness": {
        "baseColorTexture": {
          "index": 10
        },
        "metallicFactor": 0.0,
        "roughnessFactor": 0.8211145618000169
      }
    },
    {
      "doubleSided": true,
      "name": "Air_Conditioner",
      "pbrMetallicRoughness": {
        "baseColorTexture": {
          "index": 11
        },
        "metallicFactor": 0.0,
        "roughnessFactor": 0.8211145618000169
      }
    }
  ],
  "meshes": [
    {
      "name": "PSX Apartment_Concreate_0",
      "primitives": [
        {
          "attributes": {
            "NORMAL": 1,
            "POSITION": 0,
            "TEXCOORD_0": 2
          },
          "indices": 3,
          "material": 0,
          "mode": 4
        }
      ]
    },
    {
      "name": "PSX Apartment_Bricks#2_0",
      "primitives": [
        {
          "attributes": {
            "NORMAL": 5,
            "POSITION": 4,
            "TEXCOORD_0": 6
          },
          "indices": 7,
          "material": 1,
          "mode": 4
        }
      ]
    },
    {
      "name": "PSX Apartment_Bricks_0",
      "primitives": [
        {
          "attributes": {
            "NORMAL": 9,
            "POSITION": 8,
            "TEXCOORD_0": 10
          },
          "indices": 11,
          "material": 2,
          "mode": 4
        }
      ]
    },
    {
      "name": "PSX Apartment_Roof_0",
      "primitives": [
        {
          "attributes": {
            "NORMAL": 13,
            "POSITION": 12,
            "TEXCOORD_0": 14
          },
          "indices": 15,
          "material": 3,
          "mode": 4
        }
      ]
    },
    {
      "name": "PSX Apartment_Trim_0",
      "primitives": [
        {
          "attributes": {
            "NORMAL": 17,
            "POSITION": 16,
            "TEXCOORD_0": 18
          },
          "indices": 19,
          "material": 4,
          "mode": 4
        }
      ]
    },
    {
      "name": "PSX Apartment_Windows#2_0",
      "primitives": [
        {
          "attributes": {
            "NORMAL": 21,
            "POSITION": 20,
            "TEXCOORD_0": 22
          },
          "indices": 23,
          "material": 5,
          "mode": 4
        }
      ]
    },
    {
      "name": "PSX Apartment_Windows_0",
      "primitives": [
        {
          "attributes": {
            "NORMAL": 25,
            "POSITION": 24,
            "TEXCOORD_0": 26
          },
          "indices": 27,
          "material": 6,
          "mode": 4
        }
      ]
    },
    {
      "name": "PSX Apartment_Door_0",
      "primitives": [
        {
          "attributes": {
            "NORMAL": 29,
            "POSITION": 28,
            "TEXCOORD_0": 30
          },
          "indices": 31,
          "material": 7,
          "mode": 4
        }
      ]
    },
    {
      "name": "PSX Apartment_Shop_0",
      "primitives": [
        {
          "attributes": {
            "NORMAL": 33,
            "POSITION": 32,
            "TEXCOORD_0": 34
          },
          "indices": 35,
          "material": 8,
          "mode": 4
        }
      ]
    },
    {
      "name": "PSX Apartment_Sign_0",
      "primitives": [
        {
          "attributes": {
            "NORMAL": 37,
            "POSITION": 36,
            "TEXCOORD_0": 38
          },
          "indices": 39,
          "material": 9,
          "mode": 4
        }
      ]
    },
    {
      "name": "PSX Apartment_Piep_0",
      "primitives": [
        {
          "attributes": {
            "NORMAL": 41,
            "POSITION": 40,
            "TEXCOORD_0": 42
          },
          "indices": 43,
          "material": 10,
          "mode": 4
        }
      ]
    },
    {
      "name": "PSX Apartment_Air Conditioner_0",
      "primitives": [
        {
          "attributes": {
            "NORMAL": 45,
            "POSITION": 44,
            "TEXCOORD_0": 46
          },
          "indices": 47,
          "material": 11,
          "mode": 4
        }
      ]
    }
  ],
  "nodes": [
    {
      "children": [
        1
      ],
      "matrix": [
        1.0,
        0.0,
        0.0,
        0.0,
        0.0,
        2.220446049250313e-16,
        -1.0,
        0.0,
        0.0,
        1.0,
        2.220446049250313e-16,
        0.0,
        0.0,
        0.0,
        0.0,
        1.0
      ],
      "name": "Sketchfab_model"
    },
    {
      "children": [
        2
      ],
      "matrix": [
        0.009999999776482582,
        0.0,
        0.0,
        0.0,
        0.0,
        0.0,
        0.009999999776482582,
        0.0,
        0.0,
        -0.009999999776482582,
        0.0,
        0.0,
        0.0,
        0.0,
        0.0,
        1.0
      ],
      "name": "PSX Apartment.fbx"
    },
    {
      "children": [
        3
      ],
      "name": "RootNode"
    },
    {
      "children": [
        4,
        5,
        6,
        7,
        8,
        9,
        10,
        11,
        12,
        13,
        14,
        15
      ],
      "matrix": [
        100.0,
        0.0,
        0.0,
        0.0,
        0.0,
        -1.2808876466678692e-05,
        -78.6203231811513,
        0.0,
        0.0,
        99.99999999999868,
        -1.629206793918314e-05,
        0.0,
        0.0,
        0.0,
        0.0,
        1.0
      ],
      "name": "PSX Apartment"
    },
    {
      "mesh": 0,
      "name": "PSX Apartment_Concreate_0"
    },
    {
      "mesh": 1,
      "name": "PSX Apartment_Bricks#2_0"
    },
    {
      "mesh": 2,
      "name": "PSX Apartment_Bricks_0"
    },
    {
      "mesh": 3,
      "name": "PSX Apartment_Roof_0"
    },
    {
      "mesh": 4,
      "name": "PSX Apartment_Trim_0"
    },
    {
      "mesh": 5,
      "name": "PSX Apartment_Windows#2_0"
    },
    {
      "mesh": 6,
      "name": "PSX Apartment_Windows_0"
    },
    {
      "mesh": 7,
      "name": "PSX Apartment_Door_0"
    },
    {
      "mesh": 8,
      "name": "PSX Apartment_Shop_0"
    },
    {
      "mesh": 9,
      "name": "PSX Apartment_Sign_0"
    },
    {
      "mesh": 10,
      "name": "PSX Apartment_Piep_0"
    },
    {
      "mesh": 11,
      "name": "PSX Apartment_Air Conditioner_0"
    }
  ],
  "samplers": [
    {
      "magFilter": 9729,
      "minFilter": 9987,
      "wrapS": 10497,
      "wrapT": 10497
    }
  ],
  "scene": 0,
  "scenes": [
    {
      "name": "Sketchfab_Scene",
      "nodes": [
        0
      ]
    }
  ],
  "textures": [
    {
      "sampler": 0,
      "source": 0
    },
    {
      "sampler": 0,
      "source": 1
    },
    {
      "sampler": 0,
      "source": 2
    },
    {
      "sampler": 0,
      "source": 3
    },
    {
      "sampler": 0,
      "source": 4
    },
    {
      "sampler": 0,
      "source": 5
    },
    {
      "sampler": 0,
      "source": 6
    },
    {
      "sampler": 0,
      "source": 7
    },
    {
      "sampler": 0,
      "source": 8
    },
    {
      "sampler": 0,
      "source": 9
    },
    {
      "sampler": 0,
      "source": 10
    },
    {
      "sampler": 0,
      "source": 11
    }
  ]
}
