{
  "accessors": [
    {
      "bufferView": 2,
      "componentType": 5126,
      "count": 598,
      "max": [
        1.672296404838562,
        0.6312685012817383,
        1.0
      ],
      "min": [
        -1.2984986305236816,
        -1.0,
        -1.0
      ],
      "type": "VEC3"
    },
    {
      "bufferView": 2,
      "byteOffset": 7176,
      "componentType": 5126,
      "count": 598,
      "max": [
        1.0,
        1.0,
        1.0
      ],
      "min": [
        -1.0,
        -1.0,
        -1.0
      ],
      "type": "VEC3"
    },
    {
      "bufferView": 1,
      "componentType": 5126,
      "count": 598,
      "max": [
        0.7983304858207703,
        0.9653418064117432
      ],
      "min": [
        0.023371383547782898,
        0.0360027551651001
      ],
      "type": "VEC2"
    },
    {
      "bufferView": 0,
      "componentType": 5125,
      "count": 1659,
      "type": "SCALAR"
    },
    {
      "bufferView": 2,
      "byteOffset": 14352,
      "componentType": 5126,
      "count": 86,
      "max": [
        1.672296404838562,
        -0.2316485196352005,
        0.6773183941841125
      ],
      "min": [
        1.1651151180267334,
        -0.5251861810684204,
        -0.6773183941841125
      ],
      "type": "VEC3"
    },
    {
      "bufferView": 2,
      "byteOffset": 15384,
      "componentType": 5126,
      "count": 86,
      "max": [
        1.0,
        1.0,
        0.0
      ],
      "min": [
        0.0,
        0.0,
        0.0
      ],
      "type": "VEC3"
    },
    {
      "bufferView": 1,
      "byteOffset": 4784,
      "componentType": 5126,
      "count": 86,
      "max": [
        0.4300640821456909,
        0.45709723234176636
      ],
      "min": [
        0.430063933134079,
        0.29290270805358887
      ],
      "type": "VEC2"
    },
    {
      "bufferView": 0,
      "byteOffset": 6636,
      "componentType": 5125,
      "count": 270,
      "type": "SCALAR"
    },
    {
      "bufferView": 2,
      "byteOffset": 16416,
      "componentType": 5126,
      "count": 254,
      "max": [
        1.5708601474761963,
        -0.16832005977630615,
        0.526803195476532
      ],
      "min": [
        1.1071046590805054,
        -0.24828217923641205,
        -0.526803195476532
      ],
      "type": "VEC3"
    },
    {
      "bufferView": 2,
      "byteOffset": 19464,
      "componentType": 5126,
      "count": 254,
      "max": [
        1.0,
        0.9973956942558289,
        1.0
      ],
      "min": [
        -1.0,
        0.0,
        -1.0
      ],
      "type": "VEC3"
    },
    {
      "bufferView": 1,
      "byteOffset": 5472,
      "componentType": 5126,
      "count": 254,
      "max": [
        0.4300640821456909,
        0.43885338306427
      ],
      "min": [
        0.4300639033317566,
        0.31114643812179565
      ],
      "type": "VEC2"
    },
    {
      "bufferView": 0,
      "byteOffset": 7716,
      "componentType": 5125,
      "count": 669,
      "type": "SCALAR"
    },
    {
      "bufferView": 2,
      "byteOffset": 22512,
      "componentType": 5126,
      "count": 390,
      "max": [
        1.672296404838562,
        0.203880175948143,
        0.7042036056518555
      ],
      "min": [
        1.054728388786316,
        -0.5726116895675659,
        -0.7042036056518555
      ],
      "type": "VEC3"
    },
    {
      "bufferView": 2,
      "byteOffset": 27192,
      "componentType": 5126,
      "count": 390,
      "max": [
        1.0,
        1.0,
        1.0
      ],
      "min": [
        -1.0,
        -1.0,
        -1.0
      ],
      "type": "VEC3"
    },
    {
      "bufferView": 1,
      "byteOffset": 7504,
      "componentType": 5126,
      "count": 390,
      "max": [
        0.6558545827865601,
        0.8384804129600525
      ],
      "min": [
        0.4985376000404358,
        0.07753133773803711
      ],
      "type": "VEC2"
    },
    {
      "bufferView": 0,
      "byteOffset": 10392,
      "componentType": 5125,
      "count": 1047,
      "type": "SCALAR"
    }
  ],
  "asset": {
    "extras": {
      "author": "ZwiebelGames (https://sketchfab.com/ZwiebelGames)",
      "license": "CC-BY-4.0 (http://creativecommons.org/licenses/by/4.0/)",
      "source": "https://sketchfab.com/3d-models/usb-stick-psx-prop-066385e7e4fa4602b9bb6cf799bb8097",
      "title": "USB Stick | PSX Prop"
    },
    "generator": "Sketchfab-0.6.0",
    "version": "2.0"
  },
  "bufferViews": [
    {
      "buffer": 0,
      "byteLength": 14580,
      "name": "floatBufferViews",
      "target": 34963
    },
    {
      "buffer": 0,
      "byteLength": 10624,
      "byteOffset": 14580,
      "byteStride": 8,
      "name": "floatBufferViews",
      "target": 34962
    },
    {
      "buffer": 0,
      "byteLength": 31872,
      "byteOffset": 25204,
      "byteStride": 12,
      "name": "floatBufferViews",
      "target": 34962
    }
  ],
  "buffers": [
    {
      "byteLength": 57076,
      "uri": "scene.bin"
    }
  ],
  "images": [
    {
      "uri": "textures/plastic_baseColor.png"
    }
  ],
  "materials": [
    {
      "doubleSided": true,
      "name": "plastic",
      "pbrMetallicRoughness": {
        "baseColorTexture": {
          "index": 0
        },
        "metallicFactor": 0.0
      }
    },
    {
      "doubleSided": true,
      "name": "white",
      "pbrMetallicRoughness": {
        "baseColorFactor": [
          0.654356,
          0.59025,
          0.420952,
          1.0
        ],
        "metallicFactor": 0.0
      }
    },
    {
      "doubleSided": true,
      "name": "mesing",
      "pbrMetallicRoughness": {
        "baseColorFactor": [
          1.0,
          0.843688,
          0.0,
          1.0
        ],
        "roughnessFactor": 0.309524
      }
    },
    {
      "doubleSided": true,
      "name": "metal",
      "pbrMetallicRoughness": {
        "baseColorTexture": {
          "index": 0
        },
        "roughnessFactor": 0.38251572564649877
      }
    }
  ],
  "meshes": [
    {
      "name": "Object_0",
      "primitives": [
        {
          "attributes": {
            "NORMAL": 1,
            "POSITION": 0,
            "TEXCOORD_0": 2
          },
          "indices": 3,
          "material": 0,
          "mode": 4
        }
      ]
    },
    {
      "name": "Object_1",
      "primitives": [
        {
          "attributes": {
            "NORMAL": 5,
            "POSITION": 4,
            "TEXCOORD_0": 6
          },
          "indices": 7,
          "material": 1,
          "mode": 4
        }
      ]
    },
    {
      "name": "Object_2",
      "primitives": [
        {
          "attributes": {
            "NORMAL": 9,
            "POSITION": 8,
            "TEXCOORD_0": 10
          },
          "indices": 11,
          "material": 2,
          "mode": 4
        }
      ]
    },
    {
      "name": "Object_3",
      "primitives": [
        {
          "attributes": {
            "NORMAL": 13,
            "POSITION": 12,
            "TEXCOORD_0": 14
          },
          "indices": 15,
          "material": 3,
          "mode": 4
        }
      ]
    }
  ],
  "nodes": [
    {
      "children": [
        1
      ],
      "matrix": [
        1.0,
        0.0,
        0.0,
        0.0,
        0.0,
        2.220446049250313e-16,
        -1.0,
        0.0,
        0.0,
        1.0,
        2.220446049250313e-16,
        0.0,
        0.0,
        0.0,
        0.0,
        1.0
      ],
      "name": "Sketchfab_model"
    },
    {
      "children": [
        2
      ],
      "name": "root"
    },
    {
      "children": [
        3
      ],
      "matrix": [
        1.0,
        0.0,
        0.0,
        0.0,
        0.0,
        2.220446049250313e-16,
        1.0,
        0.0,
        0.0,
        -1.0,
        2.220446049250313e-16,
        0.0,
        0.0,
        0.0,
        0.0,
        1.0
      ],
      "name": "GLTF_SceneRootNode"
    },
    {
      "children": [
        4,
        5,
        6,
        7
      ],
      "matrix": [
        1.0,
        0.0,
        0.0,
        0.0,
        0.0,
        0.21870005130767822,
        0.0,
        0.0,
        0.0,
        0.0,
        0.4549959897994995,
        0.0,
        0.0,
        0.0,
        0.0,
        1.0
      ],
      "name": "Cube_0"
    },
    {
      "mesh": 0,
      "name": "Object_4"
    },
    {
      "mesh": 1,
      "name": "Object_5"
    },
    {
      "mesh": 2,
      "name": "Object_6"
    },
    {
      "mesh": 3,
      "name": "Object_7"
    }
  ],
  "samplers": [
    {
      "magFilter": 9729,
      "minFilter": 9987,
      "wrapS": 10497,
      "wrapT": 10497
    }
  ],
  "scene": 0,
  "scenes": [
    {
      "name": "Sketchfab_Scene",
      "nodes": [
        0
      ]
    }
  ],
  "textures": [
    {
      "sampler": 0,
      "source": 0
    }
  ]
}
